<svg width="128" height="129" viewBox="0 0 128 129" fill="none" xmlns="http://www.w3.org/2000/svg">
<g clip-path="url(#clip0_1_322)">
<path d="M63.9997 119.057C33.8557 119.057 9.33301 94.5343 9.33301 64.3903C9.33301 34.2463 33.8557 9.72363 63.9997 9.72363C94.1437 9.72363 118.666 34.2463 118.666 64.3903C118.666 94.5343 94.1437 119.057 63.9997 119.057ZM63.9997 20.3903C39.7383 20.3903 19.9997 40.1289 19.9997 64.3903C19.9997 88.6516 39.7383 108.391 63.9997 108.391C88.261 108.391 108 88.6516 108 64.3903C108 40.1289 88.261 20.3903 63.9997 20.3903Z" fill="white"/>
<path d="M64.0003 29.7239C61.0563 29.7239 58.667 27.3346 58.667 24.3906V5.72396C58.667 2.77996 61.0563 0.390625 64.0003 0.390625C66.9443 0.390625 69.3337 2.77996 69.3337 5.72396V24.3906C69.3337 27.3346 66.9443 29.7239 64.0003 29.7239Z" fill="white"/>
<path d="M122.667 69.7243H104C101.056 69.7243 98.667 67.3349 98.667 64.3909C98.667 61.4469 101.056 59.0576 104 59.0576H122.667C125.611 59.0576 128 61.4469 128 64.3909C128 67.3349 125.611 69.7243 122.667 69.7243Z" fill="white"/>
<path d="M64.0003 128.391C61.0563 128.391 58.667 126.002 58.667 123.058V104.391C58.667 101.447 61.0563 99.0576 64.0003 99.0576C66.9443 99.0576 69.3337 101.447 69.3337 104.391V123.058C69.3337 126.002 66.9443 128.391 64.0003 128.391Z" fill="white"/>
<path d="M24 69.7243H5.33333C2.38933 69.7243 0 67.3349 0 64.3909C0 61.4469 2.38933 59.0576 5.33333 59.0576H24C26.944 59.0576 29.3333 61.4469 29.3333 64.3909C29.3333 67.3349 26.944 69.7243 24 69.7243Z" fill="white"/>
<path d="M64 80.3906C55.1787 80.3906 48 73.2119 48 64.3906C48 55.5693 55.1787 48.3906 64 48.3906C72.8213 48.3906 80 55.5693 80 64.3906C80 73.2119 72.8213 80.3906 64 80.3906ZM64 59.0573C61.0613 59.0573 58.6667 61.4519 58.6667 64.3906C58.6667 67.3293 61.0613 69.7239 64 69.7239C66.9387 69.7239 69.3333 67.3293 69.3333 64.3906C69.3333 61.4519 66.9387 59.0573 64 59.0573Z" fill="white"/>
</g>
<defs>
<clipPath id="clip0_1_322">
<rect width="128" height="128" fill="white" transform="translate(0 0.390625)"/>
</clipPath>
</defs>
</svg>
