<svg width="128" height="129" viewBox="0 0 128 129" fill="none" xmlns="http://www.w3.org/2000/svg">
<g clip-path="url(#clip0_1_334)">
<path d="M11.5033 128.391C17.7095 128.391 25.2621 123.711 33.951 114.481C39.2397 108.863 46.3163 105.641 53.3665 105.641H74.6337C81.7366 105.641 89.088 108.946 94.2992 114.481C103.111 123.841 110.371 128.391 116.497 128.391C119.921 128.391 127.897 126.566 127.999 109.664C128.104 92.3425 119.852 65.3818 107.4 52.8543C102.643 48.0681 97.5959 45.6414 92.3995 45.6414C85.8963 45.6414 82.8596 47.7131 80.1806 49.5411C78.1582 50.9208 76.2379 52.2305 72.1865 52.9915C73.8625 50.3421 75.25 47.1348 75.25 43.7661C75.25 35.8188 67.5338 28.7563 66.5003 27.8464C64.8546 26.3439 60.2502 21.2515 60.2502 17.2665C60.2502 13.3358 64.8586 8.3854 66.4741 6.95967C68.0283 5.59519 68.1845 3.22948 66.8221 1.67225C65.4581 0.113518 63.0891 -0.0442298 61.5306 1.3195C60.6319 2.106 52.75 9.2344 52.75 17.2665C52.75 25.2579 60.5852 32.6055 61.4786 33.417C61.4959 33.4325 61.5131 33.448 61.5306 33.4633C63.1441 34.875 67.7498 39.7982 67.7498 43.7659C67.7498 47.0718 64.4901 51.0988 62.4959 53.1408H56.6825C52.026 52.4105 49.9813 51.0158 47.8193 49.5406C45.1404 47.7126 42.1037 45.6409 35.6005 45.6409C30.4041 45.6409 25.3571 48.0676 20.6 52.8538C8.14838 65.3816 -0.104008 92.3422 0.000990397 109.663C0.103239 126.566 8.07888 128.391 11.5033 128.391ZM25.9194 58.1414C29.2171 54.8235 32.4745 53.1413 35.6007 53.1413C39.7892 53.1413 41.3022 54.1738 43.5926 55.7365C48.8078 59.2949 53.9292 60.6412 56.3985 60.6412H71.6015C74.1627 60.6412 79.2699 59.2417 84.4073 55.7365C86.6978 54.1738 88.2108 53.1413 92.3992 53.1413C95.5254 53.1413 98.7826 54.8235 102.081 58.1414C113.052 69.1793 120.593 94.1292 120.499 109.618C120.465 115.229 119.215 120.891 116.497 120.891C114.734 120.891 109.574 119.765 99.7599 109.34C93.0597 102.223 83.9016 98.1406 74.6337 98.1406H53.3665C44.2574 98.1406 35.1903 102.223 28.4903 109.34C18.6762 119.765 13.3416 120.891 11.5036 120.891C8.78562 120.891 7.53489 115.229 7.50089 109.618C7.40689 94.1292 14.9483 69.1793 25.9194 58.1414Z" fill="white"/>
<path d="M26.4999 83.1404H30.2499V86.8903C30.2499 88.9613 31.9289 90.6403 33.9999 90.6403C36.0708 90.6403 37.7498 88.9613 37.7498 86.8903V83.1404H41.4998C43.5707 83.1404 45.2497 81.4614 45.2497 79.3904C45.2497 77.3195 43.5707 75.6405 41.4998 75.6405H37.7498V71.8905C37.7498 69.8196 36.0708 68.1406 33.9999 68.1406C31.9289 68.1406 30.2499 69.8196 30.2499 71.8905V75.6405H26.4999C24.429 75.6405 22.75 77.3195 22.75 79.3904C22.75 81.4614 24.429 83.1404 26.4999 83.1404Z" fill="white"/>
<path d="M93.999 75.6406C96.0701 75.6406 97.749 73.9617 97.749 71.8906C97.749 69.8195 96.0701 68.1406 93.999 68.1406C91.928 68.1406 90.249 69.8195 90.249 71.8906C90.249 73.9617 91.928 75.6406 93.999 75.6406Z" fill="white"/>
<path d="M93.999 90.6396C96.0701 90.6396 97.749 88.9607 97.749 86.8896C97.749 84.8186 96.0701 83.1396 93.999 83.1396C91.928 83.1396 90.249 84.8186 90.249 86.8896C90.249 88.9607 91.928 90.6396 93.999 90.6396Z" fill="white"/>
<path d="M86.5 83.1406C88.5711 83.1406 90.25 81.4617 90.25 79.3906C90.25 77.3195 88.5711 75.6406 86.5 75.6406C84.4289 75.6406 82.75 77.3195 82.75 79.3906C82.75 81.4617 84.4289 83.1406 86.5 83.1406Z" fill="white"/>
<path d="M101.499 83.1406C103.57 83.1406 105.249 81.4617 105.249 79.3906C105.249 77.3195 103.57 75.6406 101.499 75.6406C99.428 75.6406 97.749 77.3195 97.749 79.3906C97.749 81.4617 99.428 83.1406 101.499 83.1406Z" fill="white"/>
<path d="M56.4999 83.1405H71.4997C73.5707 83.1405 75.2497 81.4615 75.2497 79.3905C75.2497 77.3196 73.5707 75.6406 71.4997 75.6406H56.4999C54.429 75.6406 52.75 77.3196 52.75 79.3905C52.75 81.4615 54.429 83.1405 56.4999 83.1405Z" fill="white"/>
</g>
<defs>
<clipPath id="clip0_1_334">
<rect width="128" height="128" fill="white" transform="translate(0 0.390625)"/>
</clipPath>
</defs>
</svg>
