<svg width="128" height="129" viewBox="0 0 128 129" fill="none" xmlns="http://www.w3.org/2000/svg">
<g clip-path="url(#clip0_1_347)">
<path d="M63.9999 0.390625C28.711 0.390625 0 29.1016 0 64.3905C0 99.6793 28.711 128.391 63.9999 128.391C99.2887 128.391 128 99.6793 128 64.3905C128 29.1016 99.289 0.390625 63.9999 0.390625ZM63.9999 117.26C34.8493 117.26 11.1303 93.5411 11.1303 64.3905C11.1303 35.2399 34.8493 11.5211 63.9999 11.5211C93.1505 11.5211 116.869 35.2399 116.869 64.3905C116.869 93.5411 93.1505 117.26 63.9999 117.26Z" fill="white"/>
<path d="M93.7958 34.5997C92.989 33.7871 91.7702 33.5534 90.7293 34.0099L51.7729 50.7056C51.1163 50.9839 50.593 51.5124 50.3092 52.1693L33.6135 91.1257C33.1627 92.1721 33.3965 93.3851 34.2033 94.1922C34.7376 94.7153 35.45 94.9991 36.1734 94.9991C36.5407 94.9991 36.9135 94.9211 37.2699 94.7766L76.2263 78.0809C76.8829 77.7971 77.4062 77.2741 77.69 76.6172L94.3857 37.6608C94.831 36.6144 94.5972 35.4011 93.7958 34.5997ZM63.9996 69.9556C60.9331 69.9556 58.4345 67.4568 58.4345 64.3905C58.4345 61.324 60.9333 58.8254 63.9996 58.8254C67.0661 58.8254 69.5647 61.3243 69.5647 64.3905C69.565 67.4568 67.0661 69.9556 63.9996 69.9556Z" fill="white"/>
</g>
<defs>
<clipPath id="clip0_1_347">
<rect width="128" height="128" fill="white" transform="translate(0 0.390625)"/>
</clipPath>
</defs>
</svg>
